<svg xmlns="http://www.w3.org/2000/svg" width="512" height="512" viewBox="0 0 512 512" version="1.1">
  <path d="M 201.500,111.965 C 168.225,119.591 139.838,139.611 123.152,166.574 C 115.456,179.129 110.387,190.878 106.841,204.500 C 103.841,216.017 103.217,228.288 105.019,240.209 C 107.077,254.067 111.731,265.868 119.830,278.569 C 125.252,287.131 129.219,292.008 137.147,300.073 C 147.729,310.831 157.747,317.891 170.711,324.103 C 177.997,327.544 189.082,331.035 198.300,332.751 C 206.960,334.363 224.046,334.508 233,333.040 C 249.845,330.312 264.593,324.007 278.085,313.468 C 285.661,307.594 297.155,295.928 302.811,288.348 C 312.729,275.115 319.396,260.782 323.246,244.500 C 324.963,237.160 325.250,234.590 325.230,224 C 325.209,213.333 324.928,210.934 323.199,203.500 C 320.098,190.577 315.731,179.937 309.018,169 C 304.621,161.905 294.936,150.148 288.534,144.418 C 280.023,136.790 266.966,127.875 258,123.697 C 248.399,119.229 237.598,116.205 227,114.731 C 219.858,113.750 208.566,112.835 206.500,113.084 C 206.225,113.122 203.975,113.521 201.500,113.965 z" fill="#000000" />
</svg>
